<svg version="1.1" viewBox="0.0 0.0 960.0 720.0" fill="none" stroke="none" stroke-linecap="square" stroke-miterlimit="10" xmlns:xlink="http://www.w3.org/1999/xlink" xmlns="http://www.w3.org/2000/svg"><clipPath id="p.0"><path d="m0 0l960.0 0l0 720.0l-960.0 0l0 -720.0z" clip-rule="nonzero"/></clipPath><g clip-path="url(#p.0)"><path fill="#000000" fill-opacity="0.0" d="m0 0l960.0 0l0 720.0l-960.0 0z" fill-rule="evenodd"/><path fill="#9fc5e8" d="m385.73935 197.61679l144.35825 0l0 0c18.911316 0 34.242004 19.227081 34.242004 42.944885c0 23.717804 -15.330688 42.944885 -34.242004 42.944885l-144.35825 0l0 0c-18.911316 0 -34.241974 -19.227081 -34.241974 -42.944885c0 -23.717804 15.330658 -42.944885 34.241974 -42.944885z" fill-rule="evenodd"/><path stroke="#6fa8dc" stroke-width="3.0" stroke-linejoin="round" stroke-linecap="butt" d="m385.73935 197.61679l144.35825 0l0 0c18.911316 0 34.242004 19.227081 34.242004 42.944885c0 23.717804 -15.330688 42.944885 -34.242004 42.944885l-144.35825 0l0 0c-18.911316 0 -34.241974 -19.227081 -34.241974 -42.944885c0 -23.717804 15.330658 -42.944885 34.241974 -42.944885z" fill-rule="evenodd"/><path fill="#cfe2f3" d="m376.13837 217.49606l165.8526 0l0 0c21.727173 0 39.340454 37.19519 39.340454 83.07779c0 45.8826 -17.613281 83.07779 -39.340454 83.07779l-165.8526 0l0 0c-21.727142 0 -39.340454 -37.19519 -39.340454 -83.07779c0 -45.8826 17.613312 -83.07779 39.340454 -83.07779z" fill-rule="evenodd"/><path stroke="#9fc5e8" stroke-width="3.0" stroke-linejoin="round" stroke-linecap="butt" d="m376.13837 217.49606l165.8526 0l0 0c21.727173 0 39.340454 37.19519 39.340454 83.07779c0 45.8826 -17.613281 83.07779 -39.340454 83.07779l-165.8526 0l0 0c-21.727142 0 -39.340454 -37.19519 -39.340454 -83.07779c0 -45.8826 17.613312 -83.07779 39.340454 -83.07779z" fill-rule="evenodd"/><path fill="#434343" d="m541.05133 332.7188c25.999023 41.063812 18.365723 95.150055 -17.94806 127.17215c-36.31375 32.022125 -90.36905 32.333893 -127.099365 0.7331238c-36.730316 -31.6008 -45.071198 -85.59488 -19.611847 -126.955505z" fill-rule="evenodd"/><path fill="#434343" d="m543.38367 274.51846l0 85.480316l0 0c0 47.209473 -38.263794 85.480316 -85.46457 85.480316c-47.200806 0 -85.46457 -38.270844 -85.46457 -85.480316l0 -85.480316z" fill-rule="evenodd"/><path fill="#434343" d="m372.45407 302.2651l0 -85.48033l0 0c0 -47.209473 38.263794 -85.480316 85.46457 -85.480316c47.200775 0 85.46454 38.270844 85.46454 85.480316l0 85.48033z" fill-rule="evenodd"/><path fill="#ffffff" d="m403.02887 263.76117l0 -46.976395l0 0c0 -25.944336 25.086151 -46.97638 56.031494 -46.97638c30.945343 0 56.031494 21.032043 56.031494 46.97638l0 46.976395z" fill-rule="evenodd"/><path fill="#ffffff" d="m515.0981 217.49619l0 53.212585l0 0c0 29.38852 -25.086182 53.212616 -56.031494 53.212616c-30.945343 0 -56.031525 -23.824097 -56.031525 -53.212616l0 -53.212585z" fill-rule="evenodd"/><path fill="#434343" d="m421.14435 263.76117l0 -33.401596l0 0c0 -18.447174 16.977936 -33.401566 37.921265 -33.401566c20.943329 0 37.921265 14.9543915 37.921265 33.401566l0 33.401596z" fill-rule="evenodd"/><path fill="#434343" d="m496.98163 246.92914l0 23.77951l0 0c0 13.133087 -16.977936 23.779541 -37.921265 23.779541c-20.943329 0 -37.921265 -10.646454 -37.921265 -23.779541l0 -23.77951z" fill-rule="evenodd"/><path fill="#efefef" d="m510.57742 345.4331l0 0c0 27.655945 -22.31015 50.274597 -50.265686 50.960693c-27.955536 0.6861267 -51.345123 -20.810913 -52.69763 -48.433655l10.0104065 -0.48553467c1.0922546 22.187622 19.931915 39.45294 42.44748 38.90033c22.515564 -0.5525818 40.48355 -18.721283 40.48355 -40.9357z" fill-rule="evenodd"/><path fill="#434343" d="m410.39017 87.92521l0 0c17.735077 -8.706131 35.2135 -8.065987 47.35318 1.734314c12.139679 9.800293 17.578156 27.660835 14.734131 48.388435l-14.981537 3.1426086c3.8717346 -17.503685 0.7201843 -32.46781 -8.429626 -40.02539c-9.149841 -7.557579 -23.128876 -6.7430115 -37.390533 2.1787796z" fill-rule="evenodd"/><path fill="#434343" d="m366.46628 465.31262l0 0c-1.3138733 -1.1880798 -1.4153442 -3.2158508 -0.22668457 -4.5292053l8.608826 -9.511719l0 0c0.5708313 -0.63067627 1.3688965 -1.0088806 2.218689 -1.0514221c0.84976196 -0.042541504 1.6816101 0.25408936 2.312561 0.824646l21.887726 19.792084c1.3138733 1.1880798 1.4153748 3.2158508 0.22671509 4.5292053l-8.608856 9.511688c-1.1886597 1.3133545 -3.2173767 1.4148865 -4.53125 0.22680664z" fill-rule="evenodd"/><path fill="#434343" d="m348.3547 485.7233l0 0c-1.3907166 -1.0970459 -1.6297302 -3.1144714 -0.533844 -4.5061035l7.9369507 -10.078644l0 0c0.5262451 -0.6682739 1.2962646 -1.099884 2.140625 -1.1999207c0.84436035 -0.10003662 1.6939087 0.13973999 2.3617554 0.66656494l23.152771 18.263489c1.3907166 1.0970459 1.6296997 3.114502 0.5338135 4.5061035l-7.93692 10.078644c-1.0959167 1.3916016 -3.1116943 1.6304016 -4.502411 0.53338623z" fill-rule="evenodd"/><path fill="#434343" d="m336.83664 508.54037l0 0c-1.4861145 -0.9627991 -1.9082031 -2.9466248 -0.94277954 -4.4309998l6.9920654 -10.750549l0 0c0.46362305 -0.7128296 1.191742 -1.2127991 2.0242004 -1.3899231c0.8324585 -0.1770935 1.7010498 -0.01687622 2.4147034 0.4454651l24.76007 16.041016c1.486084 0.9627991 1.9081726 2.9466248 0.942749 4.430969l-6.992035 10.750549c-0.9654541 1.484436 -2.9528198 1.9072266 -4.438904 0.944458z" fill-rule="evenodd"/><path fill="#434343" d="m326.47522 529.5265l0 0c-1.632782 -0.68292236 -2.401764 -2.5597534 -1.7175598 -4.1919556l4.955353 -11.821411l0 0c0.32855225 -0.7838745 0.95513916 -1.4052734 1.7419128 -1.7276611c0.7867737 -0.32235718 1.669281 -0.31921387 2.4533691 0.008728027l27.221008 11.385193c1.632782 0.68292236 2.401764 2.5597534 1.7175598 4.1920166l-4.9553223 11.82135c-0.6842346 1.6322632 -2.5625305 2.4018555 -4.1953125 1.7189331z" fill-rule="evenodd"/><path fill="#434343" d="m322.804 553.0671l0 0c-1.7542114 -0.2421875 -2.9788513 -1.8604126 -2.735321 -3.614441l1.7637634 -12.703247l0 0c0.11697388 -0.8423462 0.5637512 -1.6039429 1.2421265 -2.1173096c0.6783447 -0.5133667 1.5327148 -0.7364502 2.3750916 -0.6201172l29.238037 4.036377c1.7542114 0.2421875 2.9788513 1.8604126 2.735321 3.614441l-1.7637634 12.703247c-0.24353027 1.7540283 -1.8630371 2.9796143 -3.617218 2.7374268z" fill-rule="evenodd"/><path fill="#434343" d="m323.9999 576.78424l0 0c-1.7713928 0 -3.2073975 -1.4360352 -3.2073975 -3.2074585l0 -12.829224l0 0c0 -0.850708 0.33792114 -1.6665039 0.9394226 -2.2680054c0.60150146 -0.60150146 1.4173279 -0.9394531 2.2679749 -0.9394531l29.490692 0c1.7713928 0 3.207428 1.4360352 3.207428 3.2074585l0 12.829224c0 1.7714233 -1.4360352 3.2074585 -3.207428 3.2074585z" fill-rule="evenodd"/><path fill="#434343" d="m552.27765 465.31262l0 0c1.3138428 -1.1880798 1.4153442 -3.2158508 0.22668457 -4.5292053l-8.608826 -9.511719l0 0c-0.5708618 -0.63067627 -1.3688965 -1.0088806 -2.218689 -1.0514221c-0.8497925 -0.042541504 -1.6816406 0.25408936 -2.312561 0.824646l-21.887756 19.792084c-1.3138428 1.1880798 -1.4153442 3.2158508 -0.22668457 4.5292053l8.608826 9.511688c1.1886597 1.3133545 3.2174072 1.4148865 4.53125 0.22680664z" fill-rule="evenodd"/><path fill="#434343" d="m570.3892 485.7233l0 0c1.390686 -1.0970459 1.6296997 -3.1144714 0.5338135 -4.5061035l-7.9369507 -10.078644l0 0c-0.5262451 -0.6682739 -1.2962646 -1.099884 -2.140625 -1.1999207c-0.84436035 -0.10003662 -1.6939087 0.13973999 -2.3617554 0.66656494l-23.152771 18.263489c-1.390686 1.0970459 -1.6296997 3.114502 -0.5338135 4.5061035l7.9369507 10.078644c1.0958862 1.3916016 3.1116943 1.6304016 4.5023804 0.53338623z" fill-rule="evenodd"/><path fill="#434343" d="m581.9073 508.54037l0 0c1.486084 -0.9627991 1.9082031 -2.9466248 0.942749 -4.4309998l-6.9920654 -10.750549l0 0c-0.46362305 -0.7128296 -1.1917114 -1.2127991 -2.02417 -1.3899231c-0.8324585 -0.1770935 -1.7010498 -0.01687622 -2.414734 0.4454651l-24.76007 16.041016c-1.486084 0.9627991 -1.9081421 2.9466248 -0.942749 4.430969l6.9920654 10.750549c0.9654541 1.484436 2.9528198 1.9072266 4.438904 0.944458z" fill-rule="evenodd"/><path fill="#434343" d="m592.2687 529.5265l0 0c1.6328125 -0.68292236 2.4017944 -2.5597534 1.7175903 -4.1919556l-4.9553833 -11.821411l0 0c-0.32855225 -0.7838745 -0.95513916 -1.4052734 -1.7418823 -1.7276611c-0.7868042 -0.32235718 -1.6693115 -0.31921387 -2.4533691 0.008728027l-27.221008 11.385193c-1.6328125 0.68292236 -2.4017944 2.5597534 -1.7175903 4.1920166l4.9553833 11.82135c0.6842041 1.6322632 2.5625 2.4018555 4.1952515 1.7189331z" fill-rule="evenodd"/><path fill="#434343" d="m595.93994 553.0671l0 0c1.7542114 -0.2421875 2.9788208 -1.8604126 2.7352905 -3.614441l-1.7637329 -12.703247l0 0c-0.117004395 -0.8423462 -0.56378174 -1.6039429 -1.2421265 -2.1173096c-0.6783447 -0.5133667 -1.5327148 -0.7364502 -2.375122 -0.6201172l-29.238037 4.036377c-1.7542114 0.2421875 -2.9788208 1.8604126 -2.7352905 3.614441l1.7637329 12.703247c0.24353027 1.7540283 1.8630371 2.9796143 3.6172485 2.7374268z" fill-rule="evenodd"/><path fill="#434343" d="m594.744 576.78424l0 0c1.7713623 0 3.2073975 -1.4360352 3.2073975 -3.2074585l0 -12.829224l0 0c0 -0.850708 -0.33795166 -1.6665039 -0.9394531 -2.2680054c-0.60150146 -0.60150146 -1.4172974 -0.9394531 -2.2679443 -0.9394531l-29.490723 0c-1.7713623 0 -3.2073975 1.4360352 -3.2073975 3.2074585l0 12.829224c0 1.7714233 1.4360352 3.2074585 3.2073975 3.2074585z" fill-rule="evenodd"/><path fill="#434343" d="m443.26816 498.51355l0 0c-1.6261597 0 -2.944397 -1.3182678 -2.944397 -2.9444275l0 -11.777252l0 0c0 -0.7809143 0.31021118 -1.5298157 0.86239624 -2.0820007c0.55218506 -0.55218506 1.3010864 -0.86239624 2.0820007 -0.86239624l30.048187 0c1.6261597 0 2.9444275 1.3182373 2.9444275 2.944397l0 11.777252c0 1.6261597 -1.3182678 2.9444275 -2.9444275 2.9444275z" fill-rule="evenodd"/><path fill="#434343" d="m444.87714 518.4521l0 0c-1.6261597 0 -2.9467468 -1.3182373 -2.949646 -2.944397l-0.020996094 -11.777283l0 0c-0.0014038086 -0.7809143 0.3074646 -1.5298157 0.8586731 -2.0820007c0.5512085 -0.55218506 1.2995605 -0.86239624 2.0804749 -0.86239624l30.016693 0c1.6261597 0 2.9467468 1.3182373 2.949646 2.944397l0.020996094 11.777283c0.00289917 1.6261597 -1.3129883 2.944397 -2.939148 2.944397z" fill-rule="evenodd"/><path fill="#434343" d="m444.49374 537.4325l0 0c-1.6240234 -0.05230713 -2.8865051 -1.4108276 -2.8198242 -3.0343018l0.48294067 -11.757996l0 0c0.03201294 -0.77960205 0.37252808 -1.517334 0.9466553 -2.0508423c0.5740967 -0.5335083 1.3347473 -0.81915283 2.114624 -0.79400635l30.024445 0.96710205c1.6239929 0.05230713 2.8864746 1.4108276 2.8197937 3.0343018l-0.48294067 11.757996c-0.06668091 1.6234741 -1.4372559 2.8971558 -3.0612793 2.8448486z" fill-rule="evenodd"/><path fill="#434343" d="m444.2555 555.81647l0 0c-1.6221008 -0.09686279 -2.843048 -1.4892578 -2.7270813 -3.1101074l0.8399048 -11.7387085l0 0c0.055664062 -0.77838135 0.41851807 -1.5063477 1.0086975 -2.0238647c0.59017944 -0.51745605 1.3593445 -0.7821045 2.1383057 -0.7355957l29.968445 1.7889404c1.6220703 0.09686279 2.8430176 1.4892578 2.7270508 3.1101074l-0.83987427 11.7387085c-0.1159668 1.6208496 -1.5249329 2.8562622 -3.1470337 2.7594604z" fill-rule="evenodd"/><path fill="#434343" d="m444.8428 575.17944l0 0c-1.6261597 0 -2.9444275 -1.3182373 -2.9444275 -2.944397l0 -11.777283l0 0c0 -0.7808838 0.31021118 -1.5297852 0.86239624 -2.0819702c0.55218506 -0.55218506 1.301117 -0.86242676 2.0820312 -0.86242676l30.048187 0c1.6261597 0 2.944397 1.3182373 2.944397 2.944397l0 11.777283c0 1.6261597 -1.3182373 2.944397 -2.944397 2.944397z" fill-rule="evenodd"/><path fill="#434343" d="m444.86227 595.02484l0 0c-1.6261597 0 -2.944397 -1.3182373 -2.944397 -2.944397l0 -11.777283l0 0c0 -0.7808838 0.31021118 -1.5298462 0.86239624 -2.0820312c0.55218506 -0.55218506 1.3010864 -0.8623657 2.0820007 -0.8623657l30.016693 0c1.6261597 0 2.9444275 1.3182373 2.9444275 2.944397l0 11.777283c0 1.6261597 -1.3182678 2.944397 -2.9444275 2.944397z" fill-rule="evenodd"/><path fill="#434343" d="m310.4987 600.56433l0 0c0 -13.133118 10.6041565 -23.779541 23.685028 -23.779541l0 0c6.2816772 0 12.306061 2.50531 16.747864 6.9648438c4.441803 4.4595337 6.937195 10.507935 6.937195 16.814697l0 0c0 13.133057 -10.6041565 23.77948 -23.685059 23.77948l0 0c-13.080872 0 -23.685028 -10.646423 -23.685028 -23.77948zm14.256012 0c0 5.2596436 4.221527 9.523499 9.429016 9.523499c5.2075195 0 9.429016 -4.263855 9.429016 -9.523499c0 -5.2597046 -4.2214966 -9.523499 -9.429016 -9.523499l0 0c-5.207489 0 -9.429016 4.263794 -9.429016 9.523499z" fill-rule="evenodd"/><path fill="#434343" d="m551.7454 600.56433l0 0c0 -13.133118 10.604126 -23.779541 23.684998 -23.779541l0 0c6.2816772 0 12.306091 2.50531 16.747864 6.9648438c4.4418335 4.4595337 6.937195 10.507935 6.937195 16.814697l0 0c0 13.133057 -10.604126 23.77948 -23.685059 23.77948l0 0c-13.080872 0 -23.684998 -10.646423 -23.684998 -23.77948zm14.255981 0c0 5.2596436 4.2215576 9.523499 9.429016 9.523499c5.2075195 0 9.429016 -4.263855 9.429016 -9.523499c0 -5.2597046 -4.2214966 -9.523499 -9.429016 -9.523499l0 0c-5.2074585 0 -9.429016 4.263794 -9.429016 9.523499z" fill-rule="evenodd"/><path fill="#434343" d="m452.70602 602.4249l13.331116 0l0 0c1.7463989 0 3.1621704 10.646545 3.1621704 23.779785c0 13.133301 -1.4157715 23.779846 -3.1621704 23.779846l-13.331116 0l0 0c-1.7463989 0 -3.1621704 -10.646545 -3.1621704 -23.779846c0 -13.13324 1.4157715 -23.779785 3.1621704 -23.779785z" fill-rule="evenodd"/><path fill="#434343" d="m377.52493 98.850395l0 0c0 -11.619728 8.5312805 -21.039375 19.055115 -21.039375l0 0c5.0537415 0 9.900482 2.2166443 13.473999 6.1622925c3.5735474 3.9456482 5.5811157 9.297096 5.5811157 14.877083l0 0c0 11.61972 -8.53125 21.039368 -19.055115 21.039368l0 0c-10.523834 0 -19.055115 -9.419647 -19.055115 -21.039368zm13.769989 0c0 4.014763 2.3662415 7.2693787 5.2851257 7.2693787c2.9189148 0 5.2851257 -3.2546158 5.2851257 -7.2693787c0 -4.0147705 -2.366211 -7.2693787 -5.2851257 -7.2693787l0 0c-2.9188843 0 -5.2851257 3.2546082 -5.2851257 7.2693787z" fill-rule="evenodd"/><path fill="#434343" d="m274.22504 282.2504l-54.135925 78.59375l-14.860306 36.050873l76.755905 -111.433075z" fill-rule="evenodd"/><path fill="#434343" d="m632.3429 295.47406l29.293274 -95.05246l20.19806 -34.06305l-41.29132 133.98425z" fill-rule="evenodd"/><path fill="#434343" d="m519.74945 315.73663l119.33862 -30.614197l3.3700562 13.133881l-119.33856 30.614166z" fill-rule="evenodd"/><path fill="#434343" d="m273.1025 278.2309l114.74014 44.91339l-4.9448853 12.629913l-114.74014 -44.91339z" fill-rule="evenodd"/><path fill="#434343" d="m260.0551 287.46457l0 0c0 -7.1492615 6.0846863 -12.944885 13.590546 -12.944885l0 0c3.6044617 0 7.061249 1.3638306 9.609985 3.7914734c2.548706 2.4276428 3.9805603 5.720215 3.9805603 9.153412l0 0c0 7.1492615 -6.0846863 12.944885 -13.590546 12.944885l0 0c-7.5058594 0 -13.590546 -5.795624 -13.590546 -12.944885z" fill-rule="evenodd"/><path fill="#434343" d="m618.8898 291.83203l0 0c0 -7.1492615 6.084717 -12.944885 13.590515 -12.944885l0 0c3.6044922 0 7.0612793 1.3638306 9.609985 3.7914734c2.548767 2.4276123 3.9805908 5.720215 3.9805908 9.153412l0 0c0 7.1492615 -6.084717 12.944885 -13.590576 12.944885l0 0c-7.5057983 0 -13.590515 -5.795624 -13.590515 -12.944885z" fill-rule="evenodd"/><path fill="#434343" d="m651.3622 206.78215l0 0c0 -5.0618896 4.399597 -9.1653595 9.826782 -9.1653595l0 0c5.427185 0 9.826782 4.10347 9.826782 9.1653595l0 0c0 5.0618896 -4.399597 9.1653595 -9.826782 9.1653595l0 0c-5.427185 0 -9.826782 -4.10347 -9.826782 -9.1653595z" fill-rule="evenodd"/><path fill="#434343" d="m209.6063 360.0l0 0c0 -5.0618896 4.399597 -9.165344 9.826782 -9.165344l0 0c5.42717 0 9.826767 4.1034546 9.826767 9.165344l0 0c0 5.0618896 -4.399597 9.165344 -9.826767 9.165344l0 0c-5.427185 0 -9.826782 -4.1034546 -9.826782 -9.165344z" fill-rule="evenodd"/><path fill="#434343" d="m214.79916 357.04123l-21.296448 11.55426l-9.393372 13.419098l37.38582 -20.283447z" fill-rule="evenodd"/><path fill="#9fc5e8" d="m361.0315 294.48788l13.331116 0l0 0c1.7463989 0 3.16214 10.646606 3.16214 23.779846c0 13.13324 -1.415741 23.779846 -3.16214 23.779846l-13.331116 0l0 0c-1.7464294 0 -3.1621704 -10.646606 -3.1621704 -23.779846c0 -13.13324 1.415741 -23.779846 3.1621704 -23.779846z" fill-rule="evenodd"/><path stroke="#6fa8dc" stroke-width="3.0" stroke-linejoin="round" stroke-linecap="butt" d="m361.0315 294.48788l13.331116 0l0 0c1.7463989 0 3.16214 10.646606 3.16214 23.779846c0 13.13324 -1.415741 23.779846 -3.16214 23.779846l-13.331116 0l0 0c-1.7464294 0 -3.1621704 -10.646606 -3.1621704 -23.779846c0 -13.13324 1.415741 -23.779846 3.1621704 -23.779846z" fill-rule="evenodd"/><path fill="#9fc5e8" d="m543.76904 294.48788l13.331116 0l0 0c1.7463989 0 3.1621094 10.646606 3.1621094 23.779846c0 13.13324 -1.4157104 23.779846 -3.1621094 23.779846l-13.331116 0l0 0c-1.74646 0 -3.1621704 -10.646606 -3.1621704 -23.779846c0 -13.13324 1.4157104 -23.779846 3.1621704 -23.779846z" fill-rule="evenodd"/><path stroke="#6fa8dc" stroke-width="3.0" stroke-linejoin="round" stroke-linecap="butt" d="m543.76904 294.48788l13.331116 0l0 0c1.7463989 0 3.1621094 10.646606 3.1621094 23.779846c0 13.13324 -1.4157104 23.779846 -3.1621094 23.779846l-13.331116 0l0 0c-1.74646 0 -3.1621704 -10.646606 -3.1621704 -23.779846c0 -13.13324 1.4157104 -23.779846 3.1621704 -23.779846z" fill-rule="evenodd"/><path fill="#93c47d" d="m621.812 119.88894l110.236206 27.055122l-13.858276 56.472427l-110.236206 -27.055115z" fill-rule="evenodd"/><path fill="#6aa84f" d="m608.9094 172.88705l12.6571045 -50.123276l48.43347 38.88977l61.090515 -11.2335205l-12.657043 50.12329l-48.43347 -38.88977z" fill-rule="evenodd"/><path fill="#434343" d="m660.77466 215.27296l-13.070862 -19.92125l-5.2440796 -21.795288l26.141724 39.84253z" fill-rule="evenodd"/></g></svg>